<svg width="380" height="380" viewBox="0 0 380 380" fill="none" xmlns="http://www.w3.org/2000/svg">
<path d="M380 376C380 378.209 378.209 380 376 380L4 380C1.79086 380 2.67804e-08 378.209 5.98156e-08 376L5.68248e-06 -4.16251e-05L380 0.000152588L380 376Z" fill="white" fill-opacity="0.6"/>
<path d="M127.055 195.162H127.056C127.057 195.162 127.058 195.162 127.059 195.162H140.338C140.665 195.162 140.952 194.945 141.042 194.631L143.972 184.377C144.035 184.156 143.991 183.918 143.852 183.735C143.714 183.551 143.497 183.443 143.268 183.443H125.366L124.842 181.087C124.767 180.752 124.47 180.514 124.127 180.514H119.732C119.328 180.514 119 180.842 119 181.246C119 181.651 119.328 181.979 119.732 181.979H123.539C123.632 182.396 126.045 193.254 126.184 193.879C125.405 194.217 124.859 194.993 124.859 195.895C124.859 197.106 125.845 198.092 127.057 198.092H140.338C140.742 198.092 141.07 197.764 141.07 197.359C141.07 196.955 140.742 196.627 140.338 196.627H127.057C126.653 196.627 126.324 196.298 126.324 195.895C126.324 195.491 126.652 195.163 127.055 195.162ZM142.297 184.908L139.785 193.697H127.644L125.691 184.908H142.297Z" fill="black"/>
<path d="M126.324 200.289C126.324 201.5 127.31 202.486 128.521 202.486C129.733 202.486 130.719 201.5 130.719 200.289C130.719 199.077 129.733 198.092 128.521 198.092C127.31 198.092 126.324 199.077 126.324 200.289ZM128.521 199.557C128.925 199.557 129.254 199.885 129.254 200.289C129.254 200.693 128.925 201.021 128.521 201.021C128.118 201.021 127.789 200.693 127.789 200.289C127.789 199.885 128.118 199.557 128.521 199.557Z" fill="black"/>
<path d="M136.676 200.289C136.676 201.5 137.661 202.486 138.873 202.486C140.085 202.486 141.07 201.5 141.07 200.289C141.07 199.077 140.085 198.092 138.873 198.092C137.661 198.092 136.676 199.077 136.676 200.289ZM138.873 199.557C139.277 199.557 139.605 199.885 139.605 200.289C139.605 200.693 139.277 201.021 138.873 201.021C138.469 201.021 138.141 200.693 138.141 200.289C138.141 199.885 138.469 199.557 138.873 199.557Z" fill="black"/>
<path d="M176.125 190L177.762 191.638C184.512 198.388 195.494 198.388 202.244 191.638L203.875 190L202.237 188.363C195.487 181.613 184.506 181.613 177.756 188.363L176.125 190ZM190 197.888C185.262 197.888 180.525 196.081 176.919 192.475L174.862 190.419C174.631 190.188 174.631 189.812 174.862 189.575L176.919 187.519C184.131 180.306 195.869 180.306 203.081 187.519L205.137 189.575C205.369 189.806 205.369 190.181 205.137 190.419L203.081 192.475C199.475 196.081 194.737 197.888 190 197.888Z" fill="black" stroke="black" stroke-width="0.3"/>
<path d="M190 185.469C187.5 185.469 185.469 187.5 185.469 190C185.469 192.5 187.5 194.531 190 194.531C192.5 194.531 194.531 192.5 194.531 190C194.531 187.5 192.5 185.469 190 185.469ZM190 195.719C186.844 195.719 184.281 193.15 184.281 190C184.281 186.844 186.85 184.281 190 184.281C193.15 184.281 195.719 186.85 195.719 190C195.719 193.156 193.156 195.719 190 195.719Z" fill="black" stroke="black" stroke-width="0.3"/>
<g clip-path="url(#clip0_2046_3739)">
<path d="M247.343 201.129C247.654 201.44 248.072 201.613 248.51 201.613C248.944 201.613 249.372 201.435 249.678 201.129L258.839 191.968C260.23 190.576 260.995 188.726 261 186.763C261 184.795 260.235 182.945 258.844 181.553C257.452 180.161 255.606 179.397 253.639 179.397C251.707 179.397 249.887 180.136 248.505 181.482C247.118 180.131 245.293 179.387 243.356 179.387C241.394 179.387 239.548 180.151 238.156 181.538C236.765 182.93 236 184.78 236 186.748C236 188.711 236.77 190.561 238.162 191.953L247.343 201.129ZM239.043 182.425C240.196 181.273 241.73 180.636 243.361 180.636C244.993 180.636 246.532 181.273 247.689 182.43L248.067 182.807C248.184 182.925 248.342 182.991 248.51 182.991C248.673 182.991 248.836 182.925 248.954 182.807L249.321 182.44C250.478 181.283 252.012 180.646 253.649 180.646C255.28 180.646 256.815 181.283 257.967 182.435C259.124 183.592 259.756 185.127 259.756 186.758C259.756 188.389 259.119 189.924 257.962 191.081L248.796 200.247C248.648 200.395 248.378 200.395 248.225 200.247L239.049 191.071C237.891 189.914 237.254 188.379 237.254 186.748C237.254 185.117 237.891 183.582 239.043 182.425Z" fill="black" stroke="black" stroke-width="0.3"/>
</g>
<defs>
<clipPath id="clip0_2046_3739">
<rect width="25" height="25" fill="white" transform="translate(236 178)"/>
</clipPath>
</defs>
</svg>
